<svg version="1.1" xmlns="http://www.w3.org/2000/svg" viewBox="0 0 1226.3447273371112 1043.525392787542" width="1226.3447273371112" height="1043.525392787542" filter="invert(93%) hue-rotate(180deg)">
  <!-- svg-source:excalidraw -->
  
  <defs>
    <style class="style-fonts">
      @font-face {
        font-family: "Virgil";
        src: url("https://excalidraw.com/Virgil.woff2");
      }
      @font-face {
        font-family: "Cascadia";
        src: url("https://excalidraw.com/Cascadia.woff2");
      }
      @font-face {
        font-family: "Assistant";
        src: url("https://excalidraw.com/Assistant-Regular.woff2");
      }
    </style>
    
  </defs>
  <rect x="0" y="0" width="1226.3447273371112" height="1043.525392787542" fill="#ffffff"></rect><g transform="translate(474.2261032170568 184.19962255366045) rotate(0 128.1959686279297 22.5)"><text x="0" y="31.536" font-family="Virgil, Segoe UI Emoji" font-size="36px" fill="#1e1e1e" text-anchor="start" style="white-space: pre;" direction="ltr" dominant-baseline="alphabetic">SQL Commands</text></g><g transform="translate(1071.0822460716022 297.79510278389716) rotate(0 51.85798645019531 22.5)"><text x="0" y="31.536" font-family="Virgil, Segoe UI Emoji" font-size="36px" fill="#1e1e1e" text-anchor="start" style="white-space: pre;" direction="ltr" dominant-baseline="alphabetic">DBMS</text></g><g transform="translate(525.3774553174817 988.5253927875419) rotate(0 88.9919662475586 22.5)"><text x="0" y="31.536" font-family="Virgil, Segoe UI Emoji" font-size="36px" fill="#1e1e1e" text-anchor="start" style="white-space: pre;" direction="ltr" dominant-baseline="alphabetic">Database</text></g><g stroke-linecap="round" transform="translate(369.26286685319565 295.3509837284) rotate(0 116.10934029339705 28.100307673576026)"><path d="M14.05 0 C91.84 0.44, 175.36 1.81, 218.17 0 M14.05 0 C77.3 -2.68, 138.8 -1.13, 218.17 0 M218.17 0 C230.43 -2.58, 233.56 2.52, 232.22 14.05 M218.17 0 C223.52 -1.2, 232.43 6.57, 232.22 14.05 M232.22 14.05 C228.33 26.9, 229.18 33, 232.22 42.15 M232.22 14.05 C230.87 23.44, 233.08 30.83, 232.22 42.15 M232.22 42.15 C234.97 49.27, 224.69 55.74, 218.17 56.2 M232.22 42.15 C235.31 47.87, 231.08 60.55, 218.17 56.2 M218.17 56.2 C146.57 57.13, 83.46 57.08, 14.05 56.2 M218.17 56.2 C146.18 55.36, 72.85 55.54, 14.05 56.2 M14.05 56.2 C6.5 58.49, -0.43 51.61, 0 42.15 M14.05 56.2 C1.07 60.79, -2.46 52.56, 0 42.15 M0 42.15 C-0.57 28.12, -0.53 23.61, 0 14.05 M0 42.15 C0.3 35.23, 0.08 30.51, 0 14.05 M0 14.05 C-2.82 5.6, 7.72 -0.66, 14.05 0 M0 14.05 C0.34 5.47, 2.49 -4.39, 14.05 0" stroke="#1e1e1e" stroke-width="1" fill="none"></path></g><g stroke-linecap="round" transform="translate(10 267.5017076915974) rotate(0 603.1723636685556 248.97114958893144)"><path d="M32 0 C269.61 2.78, 505.6 3.17, 1174.34 0 M1174.34 0 C1194.49 3.25, 1208.56 7.01, 1206.34 32 M1206.34 32 C1208.02 163.41, 1208.72 295.19, 1206.34 465.94 M1206.34 465.94 C1203.52 484.22, 1194.38 494.13, 1174.34 497.94 M1174.34 497.94 C909.88 507.53, 644.85 504.59, 32 497.94 M32 497.94 C10.81 500.26, -2.02 483.5, 0 465.94 M0 465.94 C1.89 373.42, 1.05 279.43, 0 32 M0 32 C-1.69 12.15, 13.05 3.19, 32 0" stroke="#1e1e1e" stroke-width="1.5" fill="none" stroke-dasharray="8 9"></path></g><g stroke-linecap="round" transform="translate(343.7745681256397 276.1963623988522) rotate(0 268.5215313532037 80.04346385140161)"><path d="M32 0 C216.58 1.17, 404.21 1.2, 505.04 0 M505.04 0 C527.07 0.51, 536.68 14.2, 537.04 32 M537.04 32 C535.39 52.08, 539.2 77.65, 537.04 128.09 M537.04 128.09 C536.24 151.03, 522.51 158.51, 505.04 160.09 M505.04 160.09 C353.1 159.37, 201.49 161.25, 32 160.09 M32 160.09 C14.64 158.61, -3.38 152.08, 0 128.09 M0 128.09 C0.28 103.34, -1.21 82.79, 0 32 M0 32 C-0.12 10.31, 14.15 -3.85, 32 0" stroke="#1e1e1e" stroke-width="1.5" fill="none" stroke-dasharray="8 9"></path></g><g stroke-linecap="round" transform="translate(371.74970361320766 358.6755925019643) rotate(0 116.10934029339705 28.100307673576026)"><path d="M14.05 0 C58.68 4.89, 108.21 4.98, 218.17 0 M14.05 0 C72.91 0.11, 132.73 -1.12, 218.17 0 M218.17 0 C231.02 -1.94, 234.39 1.34, 232.22 14.05 M218.17 0 C227.22 -3.41, 234.65 3.1, 232.22 14.05 M232.22 14.05 C235.84 23.28, 233.02 38.25, 232.22 42.15 M232.22 14.05 C231.58 22.54, 231.68 32.11, 232.22 42.15 M232.22 42.15 C235.85 53.41, 229.42 59.18, 218.17 56.2 M232.22 42.15 C230.84 50.96, 227.32 57.03, 218.17 56.2 M218.17 56.2 C155.17 50.64, 95.72 50.76, 14.05 56.2 M218.17 56.2 C177.16 55.13, 130.98 56.89, 14.05 56.2 M14.05 56.2 C5.38 54.3, -2.28 50.82, 0 42.15 M14.05 56.2 C2.03 54.91, -2.31 50.77, 0 42.15 M0 42.15 C-1.43 31.2, -1.75 18.32, 0 14.05 M0 42.15 C0.67 32.04, 1.62 27.33, 0 14.05 M0 14.05 C3.06 8.27, 7.57 -3.06, 14.05 0 M0 14.05 C4.52 8.55, 0.1 2.49, 14.05 0" stroke="#1e1e1e" stroke-width="1" fill="none"></path></g><g stroke-linecap="round" transform="translate(93.80695481549219 522.9915624245841) rotate(0 70.83647276985425 38.60796464935993)"><path d="M19.3 0 C49.84 0.04, 80.45 -0.96, 122.37 0 M19.3 0 C52.2 -2.72, 86.13 -1.65, 122.37 0 M122.37 0 C136.23 -3.7, 143.52 8.31, 141.67 19.3 M122.37 0 C131.36 -2.71, 140.4 10.52, 141.67 19.3 M141.67 19.3 C142.36 34.09, 140.54 49.47, 141.67 57.91 M141.67 19.3 C143.03 28.75, 143.71 39.68, 141.67 57.91 M141.67 57.91 C144.79 71.27, 133.89 77.29, 122.37 77.22 M141.67 57.91 C142.25 70.37, 136.94 80.22, 122.37 77.22 M122.37 77.22 C101.8 79.51, 73.77 81.67, 19.3 77.22 M122.37 77.22 C91.93 80.17, 58.48 78.88, 19.3 77.22 M19.3 77.22 C10.39 79.63, 0.03 71.99, 0 57.91 M19.3 77.22 C7.07 75.23, 1.31 67.29, 0 57.91 M0 57.91 C-2.01 49.89, -2.15 35.38, 0 19.3 M0 57.91 C1.53 44.06, -1.25 29.95, 0 19.3 M0 19.3 C2.48 2.89, 3.31 -3.51, 19.3 0 M0 19.3 C-2.17 9.95, 1.96 4.57, 19.3 0" stroke="#1e1e1e" stroke-width="1" fill="none"></path></g><g stroke-linecap="round" transform="translate(95.71751310476611 639.1668313228911) rotate(0 70.83647276985425 38.60796464935993)"><path d="M19.3 0 C51.54 3.8, 82.42 -0.86, 122.37 0 C134.28 4.92, 141.44 9.68, 141.67 19.3 C142.75 23.87, 138.8 40.54, 141.67 57.91 C139.73 74.84, 130.17 76.19, 122.37 77.22 C95.96 81.14, 69.13 78.24, 19.3 77.22 C5.57 81.67, -4.94 74.88, 0 57.91 C6.05 46.22, -4.28 43.55, 0 19.3 C1.13 7.51, 1.07 4.25, 19.3 0" stroke="none" stroke-width="0" fill="#ffffff"></path><path d="M19.3 0 C44.33 4.43, 70.89 0.26, 122.37 0 M19.3 0 C56.14 -1.81, 93.52 -3.04, 122.37 0 M122.37 0 C134.1 -3.77, 141.4 8.76, 141.67 19.3 M122.37 0 C132.9 2.49, 142.96 3.81, 141.67 19.3 M141.67 19.3 C144.37 30.37, 140.87 35.14, 141.67 57.91 M141.67 19.3 C139.58 31.48, 139.74 39.03, 141.67 57.91 M141.67 57.91 C141.9 70.79, 134.84 78.51, 122.37 77.22 M141.67 57.91 C140.2 70.93, 135.7 74.83, 122.37 77.22 M122.37 77.22 C84.4 78.41, 52.84 75.03, 19.3 77.22 M122.37 77.22 C83.82 80.17, 48.99 76.76, 19.3 77.22 M19.3 77.22 C2.7 73.8, 1.99 67.05, 0 57.91 M19.3 77.22 C10.56 79.27, -1.5 69.04, 0 57.91 M0 57.91 C-4.37 48.24, -1.81 34.61, 0 19.3 M0 57.91 C-0.61 47.83, -1.09 42.75, 0 19.3 M0 19.3 C-0.08 4.77, 10.21 -3.55, 19.3 0 M0 19.3 C4.49 9.49, 6.7 3.19, 19.3 0" stroke="#1e1e1e" stroke-width="1" fill="none"></path></g><g stroke-linecap="round" transform="translate(619.0485684809814 295.23110291984267) rotate(0 116.10934029339705 28.100307673576026)"><path d="M14.05 0 C78.56 4.25, 142.09 2.86, 218.17 0 M14.05 0 C80.11 3.23, 148.37 1.75, 218.17 0 M218.17 0 C226.1 -1.32, 229.47 6.19, 232.22 14.05 M218.17 0 C231.24 -4.41, 228.78 5.29, 232.22 14.05 M232.22 14.05 C232.72 20.38, 228.76 30.79, 232.22 42.15 M232.22 14.05 C230.62 23.59, 230.74 34.8, 232.22 42.15 M232.22 42.15 C228.82 55.5, 225.94 60.11, 218.17 56.2 M232.22 42.15 C233.94 49.38, 231.94 51.99, 218.17 56.2 M218.17 56.2 C159.17 53.43, 105.74 56.79, 14.05 56.2 M218.17 56.2 C137.04 52.47, 56.63 52.6, 14.05 56.2 M14.05 56.2 C5.68 57.15, 3.19 50.04, 0 42.15 M14.05 56.2 C8.29 51.77, 0.87 54.71, 0 42.15 M0 42.15 C2.1 31.11, 2.9 24.01, 0 14.05 M0 42.15 C-0.45 32.89, -2.21 19.01, 0 14.05 M0 14.05 C0.81 1.48, 4.17 0.99, 14.05 0 M0 14.05 C0.43 5.54, 2.2 4.39, 14.05 0" stroke="#1e1e1e" stroke-width="1" fill="none"></path></g><g stroke-linecap="round" transform="translate(620.5821221632314 358.5557116934069) rotate(0 116.10934029339705 28.100307673576026)"><path d="M14.05 0 C84.24 2.66, 152.01 2.09, 218.17 0 M14.05 0 C75.47 1.01, 135.43 3.65, 218.17 0 M218.17 0 C225.6 2.17, 228.87 4.41, 232.22 14.05 M218.17 0 C224.12 2.43, 230.63 8.88, 232.22 14.05 M232.22 14.05 C230.38 23.41, 234.36 33.01, 232.22 42.15 M232.22 14.05 C230.75 19.8, 230.65 27.37, 232.22 42.15 M232.22 42.15 C234.11 53.4, 230.51 55.01, 218.17 56.2 M232.22 42.15 C231.66 51.3, 228.36 56.39, 218.17 56.2 M218.17 56.2 C165.33 57.02, 115.89 52.04, 14.05 56.2 M218.17 56.2 C168.14 57.98, 120.89 60.02, 14.05 56.2 M14.05 56.2 C2.79 53.92, -0.7 49.21, 0 42.15 M14.05 56.2 C3.39 53.89, -0.75 55.34, 0 42.15 M0 42.15 C0.05 32.18, -2.05 25.57, 0 14.05 M0 42.15 C-1.67 35.83, 1.88 28.04, 0 14.05 M0 14.05 C3.59 7.57, 1.62 3.93, 14.05 0 M0 14.05 C3.86 0.1, 7.18 2.09, 14.05 0" stroke="#1e1e1e" stroke-width="1" fill="none"></path></g><g stroke-linecap="round" transform="translate(213.41575293041524 11.50003416059917) rotate(0 116.10934029339705 28.100307673576026)"><path d="M14.05 0 C77.62 -3.17, 143.11 -4.96, 218.17 0 M14.05 0 C65.81 -3.12, 114.8 -2.69, 218.17 0 M218.17 0 C230.49 1.1, 233.95 6.72, 232.22 14.05 M218.17 0 C224.61 -4.3, 234.47 3.9, 232.22 14.05 M232.22 14.05 C234.55 27.67, 232.81 39.09, 232.22 42.15 M232.22 14.05 C232.15 23.72, 233.34 35.35, 232.22 42.15 M232.22 42.15 C235.43 51.22, 230.96 56.67, 218.17 56.2 M232.22 42.15 C228.76 53.32, 226.63 56.57, 218.17 56.2 M218.17 56.2 C141.54 58.03, 60.51 56.56, 14.05 56.2 M218.17 56.2 C144.99 59.72, 69.37 57.91, 14.05 56.2 M14.05 56.2 C3.87 53.17, -1.11 53.83, 0 42.15 M14.05 56.2 C1.09 51.92, -4.18 48.65, 0 42.15 M0 42.15 C-2.35 32.6, 1.95 18, 0 14.05 M0 42.15 C-1.81 36.21, 1.15 28.35, 0 14.05 M0 14.05 C-1.13 0.85, 1.67 1.24, 14.05 0 M0 14.05 C-4.3 3.54, 0.54 -3.56, 14.05 0" stroke="#1e1e1e" stroke-width="1" fill="none"></path></g><g stroke-linecap="round" transform="translate(493.01713319373994 11.385539132141275) rotate(0 116.10934029339705 28.100307673576026)"><path d="M14.05 0 C89.75 5.08, 166.87 -1.42, 218.17 0 M14.05 0 C93.88 -1.16, 175.15 -0.98, 218.17 0 M218.17 0 C225.4 -1.04, 235.76 6.63, 232.22 14.05 M218.17 0 C229.92 1.29, 233.12 6.28, 232.22 14.05 M232.22 14.05 C234.54 23.68, 228.66 30.17, 232.22 42.15 M232.22 14.05 C231.23 23.94, 230.77 36.97, 232.22 42.15 M232.22 42.15 C235.02 48.47, 230.08 56.09, 218.17 56.2 M232.22 42.15 C233.1 48.97, 227.08 60.24, 218.17 56.2 M218.17 56.2 C149.28 55.29, 72.59 52.5, 14.05 56.2 M218.17 56.2 C145.06 55.84, 74.03 54.92, 14.05 56.2 M14.05 56.2 C7.3 54.84, -3.32 52.56, 0 42.15 M14.05 56.2 C3.69 55.27, -1.85 49.66, 0 42.15 M0 42.15 C-1.55 36.05, -0.2 27.87, 0 14.05 M0 42.15 C1.59 34.45, -1.11 29.71, 0 14.05 M0 14.05 C0.39 3.19, 5.18 1.25, 14.05 0 M0 14.05 C1.88 4.66, 7.03 1.11, 14.05 0" stroke="#1e1e1e" stroke-width="1" fill="none"></path></g><g stroke-linecap="round" transform="translate(767.1304035348071 10) rotate(0 116.10934029339705 28.100307673576026)"><path d="M14.05 0 C56.93 -5.44, 101.91 -3.29, 218.17 0 M14.05 0 C96.15 -1.45, 174.87 -1.12, 218.17 0 M218.17 0 C225.86 2.77, 231.91 6.97, 232.22 14.05 M218.17 0 C225.28 -0.7, 235.98 8.36, 232.22 14.05 M232.22 14.05 C228.63 25.28, 235.32 37, 232.22 42.15 M232.22 14.05 C230.93 26.85, 233.79 35.49, 232.22 42.15 M232.22 42.15 C228.9 47.66, 229.75 57.87, 218.17 56.2 M232.22 42.15 C236.69 47.28, 225.08 53.46, 218.17 56.2 M218.17 56.2 C140.85 62.74, 58.62 60.33, 14.05 56.2 M218.17 56.2 C148.65 53.98, 79.35 55.35, 14.05 56.2 M14.05 56.2 C2.64 55.08, -2.89 49.05, 0 42.15 M14.05 56.2 C2.73 56.54, -0.55 53.45, 0 42.15 M0 42.15 C2.91 32.49, -2.61 33.77, 0 14.05 M0 42.15 C-1.42 37.13, -1.21 28.58, 0 14.05 M0 14.05 C-0.34 8, 1.47 -3.96, 14.05 0 M0 14.05 C3.61 1.06, 6.97 1.98, 14.05 0" stroke="#1e1e1e" stroke-width="1" fill="none"></path></g><g stroke-linecap="round" transform="translate(371.967733304622 506.9648744922997) rotate(0 240.21656403581392 28.100307673576026)"><path d="M14.05 0 C149.69 -3.28, 288.74 -1.6, 466.38 0 M14.05 0 C150.44 1.82, 287.14 0.23, 466.38 0 M466.38 0 C479.38 1.15, 476.66 5.86, 480.43 14.05 M466.38 0 C474.41 -1.8, 484.61 2.95, 480.43 14.05 M480.43 14.05 C478.45 20.8, 479.39 30.39, 480.43 42.15 M480.43 14.05 C479.2 19.77, 482.62 30.56, 480.43 42.15 M480.43 42.15 C478.19 53.73, 472.35 56.94, 466.38 56.2 M480.43 42.15 C479.7 50.94, 475.77 52.76, 466.38 56.2 M466.38 56.2 C347.69 59.67, 229.14 58.84, 14.05 56.2 M466.38 56.2 C307.05 59.94, 148.55 60.07, 14.05 56.2 M14.05 56.2 C3.87 52.32, -3.37 49.6, 0 42.15 M14.05 56.2 C6.04 56.5, 0.11 54.55, 0 42.15 M0 42.15 C-0.51 35.62, -0.64 23.87, 0 14.05 M0 42.15 C-1.65 31.88, 0.79 20.37, 0 14.05 M0 14.05 C-0.94 6.49, 2.58 -1.52, 14.05 0 M0 14.05 C3.19 2.19, 6.72 2.07, 14.05 0" stroke="#1e1e1e" stroke-width="1" fill="none"></path></g><g stroke-linecap="round" transform="translate(371.4169900880365 599.6796852734769) rotate(0 240.21656403581414 28.100307673576026)"><path d="M14.05 0 C184.65 1.9, 356.39 1.3, 466.38 0 M14.05 0 C191.04 -2.95, 370.02 -2.09, 466.38 0 M466.38 0 C479.15 1.54, 480.82 3.28, 480.43 14.05 M466.38 0 C473.48 4.51, 482.62 0.26, 480.43 14.05 M480.43 14.05 C482.24 28.92, 484.29 33.12, 480.43 42.15 M480.43 14.05 C482.13 25.22, 480.95 36.99, 480.43 42.15 M480.43 42.15 C477.62 54.5, 477.58 57.21, 466.38 56.2 M480.43 42.15 C482.18 48.45, 471.86 59.14, 466.38 56.2 M466.38 56.2 C373.08 54.87, 277.99 56.24, 14.05 56.2 M466.38 56.2 C365.77 52.21, 266.13 53.63, 14.05 56.2 M14.05 56.2 C1.39 58.33, -2.47 51.93, 0 42.15 M14.05 56.2 C4.74 52.74, -1.24 54.91, 0 42.15 M0 42.15 C0.31 32.69, 3.88 30.29, 0 14.05 M0 42.15 C-1.36 33.3, 1.7 21.47, 0 14.05 M0 14.05 C3.81 3.4, 5.45 -2.15, 14.05 0 M0 14.05 C-3.66 7.9, 0.6 1.81, 14.05 0" stroke="#1e1e1e" stroke-width="1" fill="none"></path></g><g stroke-linecap="round" transform="translate(372.9774726707883 691.6027863799027) rotate(0 240.21656403581392 28.100307673576026)"><path d="M14.05 0 C127.99 -3.1, 240.99 -4.6, 466.38 0 M14.05 0 C190.84 -0.9, 365.93 0.32, 466.38 0 M466.38 0 C477.13 3.94, 477 5.16, 480.43 14.05 M466.38 0 C474.51 1.15, 477.59 5.47, 480.43 14.05 M480.43 14.05 C484.46 20.95, 477.66 28.04, 480.43 42.15 M480.43 14.05 C481.6 23.34, 479.84 31.71, 480.43 42.15 M480.43 42.15 C483.68 51.04, 478.02 57.8, 466.38 56.2 M480.43 42.15 C477.38 55.21, 471.55 55.58, 466.38 56.2 M466.38 56.2 C328.97 54.62, 192.19 52.62, 14.05 56.2 M466.38 56.2 C318.1 55.92, 167.8 55.71, 14.05 56.2 M14.05 56.2 C6.93 57.87, -2.88 48.59, 0 42.15 M14.05 56.2 C1.46 53.36, -3.86 49.89, 0 42.15 M0 42.15 C2.06 36.67, 1.45 33.34, 0 14.05 M0 42.15 C1.42 34.33, 0.32 28.31, 0 14.05 M0 14.05 C-1.28 8.29, 5.58 -2.55, 14.05 0 M0 14.05 C0.21 6.23, 5.32 4.37, 14.05 0" stroke="#1e1e1e" stroke-width="1" fill="none"></path></g><g stroke-linecap="round" transform="translate(962.1295402997303 506.188117316804) rotate(0 89.64630977032675 118.28519545393647)"><path d="M32 0 C75.04 -3.32, 115.06 -5.63, 147.29 0 M32 0 C72.2 -2.94, 111.44 -0.05, 147.29 0 M147.29 0 C168.13 -0.31, 182.23 7.3, 179.29 32 M147.29 0 C172.27 4.3, 176.33 14.59, 179.29 32 M179.29 32 C182.06 97.31, 182.32 160.42, 179.29 204.57 M179.29 32 C179.01 73.68, 177.95 115.02, 179.29 204.57 M179.29 204.57 C183.09 229.38, 165.76 238.25, 147.29 236.57 M179.29 204.57 C178.7 221.35, 170.96 236.88, 147.29 236.57 M147.29 236.57 C109.47 236.76, 68.52 238.56, 32 236.57 M147.29 236.57 C116.29 233.67, 83.48 235.09, 32 236.57 M32 236.57 C13.02 236.23, 2.93 224.77, 0 204.57 M32 236.57 C11.51 238.84, -3.01 223.03, 0 204.57 M0 204.57 C1.31 145.49, -4.5 92.8, 0 32 M0 204.57 C1.31 159.8, -1.95 114.82, 0 32 M0 32 C3.6 14.53, 10.76 -0.3, 32 0 M0 32 C4.02 10.06, 13.42 -2.32, 32 0" stroke="#1e1e1e" stroke-width="1" fill="none"></path></g><g stroke-linecap="round" transform="translate(76.22656372689744 501.6034248050564) rotate(0 89.64630977032675 118.28519545393647)"><path d="M32 0 C67.03 3.88, 105.49 0.95, 147.29 0 M32 0 C57.15 -0.51, 83.87 -2.17, 147.29 0 M147.29 0 C166.3 -3.32, 177.33 9.88, 179.29 32 M147.29 0 C167.32 -0.95, 183.6 12.11, 179.29 32 M179.29 32 C179.41 94.61, 176.86 155.05, 179.29 204.57 M179.29 32 C179.14 81.3, 178.81 129.75, 179.29 204.57 M179.29 204.57 C179.63 227.44, 168.92 232.66, 147.29 236.57 M179.29 204.57 C175.97 226.04, 165.35 239.15, 147.29 236.57 M147.29 236.57 C110.12 239.58, 76.61 234.64, 32 236.57 M147.29 236.57 C124.02 236.85, 99.47 236.42, 32 236.57 M32 236.57 C8.7 240.34, 0.12 225.54, 0 204.57 M32 236.57 C10.32 240.02, -2.93 229.26, 0 204.57 M0 204.57 C-0.18 144.92, 2.92 92.41, 0 32 M0 204.57 C2 144.2, -1.16 81.66, 0 32 M0 32 C2.65 11.81, 7.46 0.92, 32 0 M0 32 C4.43 8.03, 13.31 -2.87, 32 0" stroke="#1e1e1e" stroke-width="1" fill="none"></path></g><g transform="translate(440.65138208333565 312.53162224851985) rotate(0 44.01995849609375 12.5)"><text x="0" y="17.52" font-family="Virgil, Segoe UI Emoji" font-size="20px" fill="#1e1e1e" text-anchor="start" style="white-space: pre;" direction="ltr" dominant-baseline="alphabetic">Executor</text></g><g transform="translate(279.8575235410344 26.496833252680517) rotate(0 50.34996032714844 12.5)"><text x="0" y="17.52" font-family="Virgil, Segoe UI Emoji" font-size="20px" fill="#1e1e1e" text-anchor="start" style="white-space: pre;" direction="ltr" dominant-baseline="alphabetic">Web Forms</text></g><g transform="translate(553.4753021128695 27.174047898970457) rotate(0 56.409942626953125 12.5)"><text x="0" y="17.52" font-family="Virgil, Segoe UI Emoji" font-size="20px" fill="#1e1e1e" text-anchor="start" style="white-space: pre;" direction="ltr" dominant-baseline="alphabetic">Applications</text></g><g transform="translate(813.7255744756349 25.680793164825445) rotate(0 71.67994689941406 12.5)"><text x="0" y="17.52" font-family="Virgil, Segoe UI Emoji" font-size="20px" fill="#1e1e1e" text-anchor="start" style="white-space: pre;" direction="ltr" dominant-baseline="alphabetic">SQL Interface</text></g><g transform="translate(492.25114757843994 524.422975090245) rotate(0 126.79989624023438 12.5)"><text x="126.79989624023438" y="17.52" font-family="Virgil, Segoe UI Emoji" font-size="20px" fill="#1e1e1e" text-anchor="middle" style="white-space: pre;" direction="ltr" dominant-baseline="alphabetic">Files and Access Methods</text></g><g transform="translate(104.7458175083666 537.0943220200206) rotate(0 58.849952697753906 25)"><text x="58.849952697753906" y="17.52" font-family="Virgil, Segoe UI Emoji" font-size="20px" fill="#1e1e1e" text-anchor="middle" style="white-space: pre;" direction="ltr" dominant-baseline="alphabetic">Transaction</text><text x="58.849952697753906" y="42.519999999999996" font-family="Virgil, Segoe UI Emoji" font-size="20px" fill="#1e1e1e" text-anchor="middle" style="white-space: pre;" direction="ltr" dominant-baseline="alphabetic">Manager</text></g><g transform="translate(125.9611654921946 653.258819358125) rotate(0 40.449974060058594 25)"><text x="40.449974060058594" y="17.52" font-family="Virgil, Segoe UI Emoji" font-size="20px" fill="#1e1e1e" text-anchor="middle" style="white-space: pre;" direction="ltr" dominant-baseline="alphabetic">Lock</text><text x="40.449974060058594" y="42.519999999999996" font-family="Virgil, Segoe UI Emoji" font-size="20px" fill="#1e1e1e" text-anchor="middle" style="white-space: pre;" direction="ltr" dominant-baseline="alphabetic">Manager</text></g><g transform="translate(534.8745064407235 615.2743059566965) rotate(0 77.88993835449219 12.5)"><text x="77.88993835449219" y="17.52" font-family="Virgil, Segoe UI Emoji" font-size="20px" fill="#1e1e1e" text-anchor="middle" style="white-space: pre;" direction="ltr" dominant-baseline="alphabetic">Buffer Manager</text></g><g transform="translate(519.034244237238 706.7126868540945) rotate(0 98.90992736816406 12.5)"><text x="98.90992736816406" y="17.52" font-family="Virgil, Segoe UI Emoji" font-size="20px" fill="#1e1e1e" text-anchor="middle" style="white-space: pre;" direction="ltr" dominant-baseline="alphabetic">Disk Space Manager</text></g><g transform="translate(1010.7861931775215 601.031516078674) rotate(0 42.499961853027344 25)"><text x="42.499961853027344" y="17.52" font-family="Virgil, Segoe UI Emoji" font-size="20px" fill="#1e1e1e" text-anchor="middle" style="white-space: pre;" direction="ltr" dominant-baseline="alphabetic">Recovery</text><text x="42.499961853027344" y="42.519999999999996" font-family="Virgil, Segoe UI Emoji" font-size="20px" fill="#1e1e1e" text-anchor="middle" style="white-space: pre;" direction="ltr" dominant-baseline="alphabetic">Manager</text></g><g transform="translate(696.1190817169904 310.8229363103601) rotate(0 32.77996826171875 12.5)"><text x="0" y="17.52" font-family="Virgil, Segoe UI Emoji" font-size="20px" fill="#1e1e1e" text-anchor="start" style="white-space: pre;" direction="ltr" dominant-baseline="alphabetic">Parser</text></g><g transform="translate(687.2311509050628 374.31989004713614) rotate(0 44.039947509765625 12.5)"><text x="0" y="17.52" font-family="Virgil, Segoe UI Emoji" font-size="20px" fill="#1e1e1e" text-anchor="start" style="white-space: pre;" direction="ltr" dominant-baseline="alphabetic">Optimizer</text></g><g transform="translate(390.33064495941517 373.6534469610415) rotate(0 98.22991943359375 12.5)"><text x="0" y="17.52" font-family="Virgil, Segoe UI Emoji" font-size="20px" fill="#1e1e1e" text-anchor="start" style="white-space: pre;" direction="ltr" dominant-baseline="alphabetic">Operator Evaluator</text></g><g stroke-linecap="round" transform="translate(457.77277702234824 853.4686039674743) rotate(0 151.43467197159293 14.094586522616737)"><path d="M37.57 6.42 C47.21 4.8, 66.32 2.54, 82.72 1.31 C99.13 0.08, 117.93 -0.73, 135.99 -0.96 C154.05 -1.19, 173.6 -0.64, 191.09 -0.06 C208.57 0.52, 225.96 1.64, 240.9 2.52 C255.84 3.4, 270.97 3.61, 280.73 5.24 C290.48 6.87, 295.82 10.6, 299.44 12.3 C303.05 14, 305.29 14.19, 302.43 15.45 C299.56 16.71, 291.84 18.11, 282.23 19.85 C272.62 21.59, 259.27 24.7, 244.78 25.9 C230.29 27.1, 212.78 26.76, 195.29 27.06 C177.8 27.37, 157.94 28.07, 139.85 27.72 C121.76 27.36, 103.44 25.85, 86.74 24.93 C70.05 24.01, 52.3 23.15, 39.7 22.21 C27.1 21.26, 17.82 20.69, 11.16 19.26 C4.5 17.83, 0.28 15.1, -0.26 13.63 C-0.81 12.16, -10.05 12.71, 7.88 10.43 C25.81 8.15, 77.42 1.26, 107.31 -0.07 C137.21 -1.39, 186.39 2.45, 187.22 2.51 M24.27 6.31 C31.32 4.73, 45.47 5.81, 60.86 4.74 C76.25 3.67, 98.22 0.97, 116.6 -0.11 C134.99 -1.18, 153.88 -1.99, 171.16 -1.7 C188.44 -1.42, 204.23 0.65, 220.28 1.6 C236.34 2.55, 255.6 2.99, 267.48 3.97 C279.37 4.96, 285.47 5.89, 291.59 7.5 C297.71 9.11, 304 11.45, 304.2 13.63 C304.4 15.81, 300.24 19.38, 292.8 20.6 C285.36 21.82, 272.07 19.55, 259.55 20.93 C247.03 22.31, 233.68 27.39, 217.71 28.9 C201.73 30.4, 181.83 30.4, 163.69 29.95 C145.55 29.5, 126.62 26.56, 108.88 26.2 C91.14 25.83, 72.24 28.75, 57.27 27.74 C42.3 26.72, 28.54 22.13, 19.06 20.08 C9.58 18.04, 2.69 16.46, 0.41 15.46 C-1.86 14.47, 1.09 15.43, 5.39 14.13 C9.7 12.82, 22.47 9.32, 26.26 7.64 C30.05 5.96, 26.25 4.25, 28.15 4.04" stroke="#1e1e1e" stroke-width="1" fill="none"></path></g><g stroke-linecap="round" transform="translate(457.76061181579735 937.8623844936119) rotate(0 151.43467197159293 14.094586522616737)"><path d="M34.04 3.84 C43.12 2.05, 61.73 1.72, 77.43 0.82 C93.12 -0.08, 110.49 -1.68, 128.2 -1.55 C145.92 -1.42, 165.69 1.13, 183.71 1.6 C201.72 2.08, 220.81 0.82, 236.29 1.31 C251.78 1.81, 266.53 2.78, 276.61 4.58 C286.69 6.38, 292.64 10.18, 296.76 12.12 C300.87 14.05, 303.11 14.47, 301.3 16.2 C299.48 17.93, 294.83 21.21, 285.88 22.49 C276.93 23.77, 261.43 23.23, 247.6 23.86 C233.77 24.49, 219.96 25.82, 202.89 26.27 C185.82 26.72, 163.95 26.56, 145.15 26.56 C126.36 26.56, 106.8 26.46, 90.13 26.26 C73.46 26.06, 57.78 26.39, 45.15 25.35 C32.52 24.3, 21.85 21.51, 14.36 19.99 C6.86 18.47, 1.08 17.62, 0.17 16.24 C-0.74 14.85, -2.75 14.04, 8.91 11.68 C20.58 9.31, 51.98 3.83, 70.18 2.05 C88.37 0.27, 116.81 0.62, 118.07 1.01 M59.82 0.73 C72.93 0.02, 93.79 2.32, 111.14 2.14 C128.49 1.96, 146.45 0.21, 163.9 -0.34 C181.35 -0.9, 199.2 -2.3, 215.84 -1.2 C232.48 -0.1, 250.55 4.52, 263.74 6.26 C276.93 7.99, 288.44 7.78, 295 9.22 C301.57 10.65, 303.82 13.44, 303.13 14.87 C302.43 16.3, 297.87 16.7, 290.84 17.82 C283.8 18.94, 272.95 20.54, 260.92 21.56 C248.89 22.59, 234.16 23.11, 218.66 23.96 C203.16 24.82, 185.53 26.24, 167.92 26.69 C150.31 27.15, 130.95 26.88, 113 26.69 C95.05 26.49, 74.79 26.5, 60.23 25.51 C45.66 24.53, 35.56 22.45, 25.62 20.77 C15.68 19.08, 4.54 17.36, 0.58 15.4 C-3.39 13.44, -1.36 10.38, 1.83 9 C5.01 7.62, 9.54 8.53, 19.67 7.12 C29.8 5.71, 55.15 1.54, 62.61 0.52 C70.08 -0.49, 63.71 0.12, 64.46 1.04" stroke="#1e1e1e" stroke-width="1" fill="none"></path></g><g stroke-linecap="round"><g transform="translate(755.9403349379286 865.4304215703523) rotate(0 1.1374439122878357 43.153943723797056)"><path d="M-1.18 -0.11 C-0.44 14.7, 2.01 71.8, 2.76 86.24 M3.38 -2.63 C3.94 12.74, 1.03 73.69, 0.82 88.94" stroke="#1e1e1e" stroke-width="1" fill="none"></path></g></g><mask></mask><g stroke-linecap="round"><g transform="translate(465.580764521505 867.3409798596294) rotate(0 0.23089515380570447 42.75459756849705)"><path d="M-1.86 -1.85 C-1.84 12.17, 0.48 69.84, 1.22 85.21 M2.32 3.33 C1.79 17.48, -1.33 73.54, -1.55 87.35" stroke="#1e1e1e" stroke-width="1" fill="none"></path></g></g><mask></mask><g stroke-linecap="round" transform="translate(469.51916342121194 922.7943654191804) rotate(0 141.23669735158 14.425811998788049)"><path d="M7.21 0 C107.22 4.96, 202.93 1.13, 275.26 0 C278.43 3.54, 279.55 7.76, 282.47 7.21 C279.92 12.13, 281.7 18.93, 282.47 21.64 C287.14 30.82, 278.39 29.75, 275.26 28.85 C171.6 32.25, 75.84 36.51, 7.21 28.85 C6.74 29.54, 1.89 21.98, 0 21.64 C3.63 21.54, 1.8 15.27, 0 7.21 C-0.6 -1.74, 1.24 1.49, 7.21 0" stroke="none" stroke-width="0" fill="#ffffff"></path><path d="M7.21 0 C64.05 -4.5, 125.17 -0.94, 275.26 0 M7.21 0 C89.79 -2.41, 172.66 -1.33, 275.26 0 M275.26 0 C280.91 -3.98, 280.95 0.79, 282.47 7.21 M275.26 0 C276.56 2.21, 284.94 5.71, 282.47 7.21 M282.47 7.21 C284.1 11.67, 282.03 16.71, 282.47 21.64 M282.47 7.21 C282.35 11.71, 282.38 16.19, 282.47 21.64 M282.47 21.64 C280.4 29.4, 281.08 26.89, 275.26 28.85 M282.47 21.64 C279.46 25.96, 284.52 31.26, 275.26 28.85 M275.26 28.85 C211.13 27.14, 146.55 28.68, 7.21 28.85 M275.26 28.85 C187.3 29.41, 99.22 28.88, 7.21 28.85 M7.21 28.85 C-0.18 32.67, -3.29 22.9, 0 21.64 M7.21 28.85 C3.21 32.96, -2.65 28.19, 0 21.64 M0 21.64 C0.11 14.03, 0.76 12.29, 0 7.21 M0 21.64 C0.51 16.94, 0.19 12.3, 0 7.21 M0 7.21 C0.21 3.65, 1.18 -0.82, 7.21 0 M0 7.21 C-2.34 3.42, 0.11 -4.58, 7.21 0" stroke="#ffffff" stroke-width="1" fill="none"></path></g><g transform="translate(519.2857287487527 909.0981378186916) rotate(0 90.59992218017578 12.5)"><text x="90.59992218017578" y="17.52" font-family="Virgil, Segoe UI Emoji" font-size="20px" fill="#1e1e1e" text-anchor="middle" style="white-space: pre;" direction="ltr" dominant-baseline="alphabetic">Data files, indices</text></g><g stroke-linecap="round"><g transform="translate(328.51944039404725 73.440686253678) rotate(0 129.12321874691384 49.5336497852968)"><path d="M0.6 0.41 C39.08 8.11, 188.11 28.65, 230.96 45.16 C273.81 61.67, 253.15 90.74, 257.71 99.49 M-0.55 -0.42 C37.75 7.48, 186.95 29.81, 229.87 46.13 C272.8 62.45, 252.16 88.83, 257 97.5" stroke="#1e1e1e" stroke-width="1" fill="none"></path></g><g transform="translate(328.51944039404725 73.440686253678) rotate(0 129.12321874691384 49.5336497852968)"><path d="M248.68 73.92 C251.7 80.64, 251.75 88.46, 257 97.5 M248.68 73.92 C252.12 83.35, 253.77 90.96, 257 97.5" stroke="#1e1e1e" stroke-width="1" fill="none"></path></g><g transform="translate(328.51944039404725 73.440686253678) rotate(0 129.12321874691384 49.5336497852968)"><path d="M265.78 74.09 C263.59 80.84, 258.41 88.61, 257 97.5 M265.78 74.09 C263.13 83.29, 258.68 90.84, 257 97.5" stroke="#1e1e1e" stroke-width="1" fill="none"></path></g></g><mask></mask><g stroke-linecap="round"><g transform="translate(851.9458573604193 74.59184954880038) rotate(0 -112.8312291799241 48.00476149514543)"><path d="M-1.04 -0.21 C-34.7 7.54, -165.2 29.45, -202.47 45.71 C-239.74 61.97, -221.16 88.83, -224.69 97.37 M0.61 -1.36 C-32.62 6.58, -162.48 30.67, -200.19 46.82 C-237.9 62.96, -221.84 87.53, -225.65 95.51" stroke="#1e1e1e" stroke-width="1" fill="none"></path></g><g transform="translate(851.9458573604193 74.59184954880038) rotate(0 -112.8312291799241 48.00476149514543)"><path d="M-234.09 71.98 C-232.41 76.72, -231.27 83.52, -225.65 95.51 M-234.09 71.98 C-230.94 81.79, -227.72 90.47, -225.65 95.51" stroke="#1e1e1e" stroke-width="1" fill="none"></path></g><g transform="translate(851.9458573604193 74.59184954880038) rotate(0 -112.8312291799241 48.00476149514543)"><path d="M-216.99 72.05 C-219.71 76.62, -222.95 83.41, -225.65 95.51 M-216.99 72.05 C-220.27 81.9, -223.47 90.56, -225.65 95.51" stroke="#1e1e1e" stroke-width="1" fill="none"></path></g></g><mask></mask><g stroke-linecap="round"><g transform="translate(605.213893049533 76.46749467007612) rotate(0 0.9249249172530654 47.222868488928725)"><path d="M0.53 -0.68 C0.61 15.25, 0.16 79.21, 0.37 95.13 M-0.64 1.57 C-0.2 17.24, 2.19 78.36, 2.49 93.57" stroke="#1e1e1e" stroke-width="1" fill="none"></path></g><g transform="translate(605.213893049533 76.46749467007612) rotate(0 0.9249249172530654 47.222868488928725)"><path d="M-6.78 70.35 C-5.3 75.22, 0.34 84.37, 2.49 93.57 M-6.78 70.35 C-4.11 79.69, 0.5 86.21, 2.49 93.57" stroke="#1e1e1e" stroke-width="1" fill="none"></path></g><g transform="translate(605.213893049533 76.46749467007612) rotate(0 0.9249249172530654 47.222868488928725)"><path d="M10.32 69.83 C6.8 74.92, 7.45 84.23, 2.49 93.57 M10.32 69.83 C6.78 79.46, 5.2 86.17, 2.49 93.57" stroke="#1e1e1e" stroke-width="1" fill="none"></path></g></g><mask></mask><g stroke-linecap="round"><g transform="translate(607.8623032125552 226.06152909105003) rotate(0 0.12408132152404505 22.717096967504403)"><path d="M-0.28 -0.54 C-0.29 7.06, 0.04 37.67, 0.07 45.28 M0.57 0.37 C0.49 8.1, -0.15 38.43, -0.32 45.98" stroke="#1e1e1e" stroke-width="1" fill="none"></path></g><g transform="translate(607.8623032125552 226.06152909105003) rotate(0 0.12408132152404505 22.717096967504403)"><path d="M-7.6 24.53 C-6.31 31.59, -3 38.2, -0.32 45.98 M-7.6 24.53 C-5.97 29.94, -3.96 35.81, -0.32 45.98" stroke="#1e1e1e" stroke-width="1" fill="none"></path></g><g transform="translate(607.8623032125552 226.06152909105003) rotate(0 0.12408132152404505 22.717096967504403)"><path d="M7.88 24.87 C4.19 31.78, 2.51 38.28, -0.32 45.98 M7.88 24.87 C5.34 30.2, 3.17 35.98, -0.32 45.98" stroke="#1e1e1e" stroke-width="1" fill="none"></path></g></g><mask></mask><g stroke-linecap="round"><g transform="translate(611.4262959926359 439.39088521956364) rotate(0 -0.03716115534962228 29.57606023858534)"><path d="M-0.6 1.14 C-0.72 10.79, -0.27 49.15, -0.28 58.46 M1.29 0.69 C0.94 9.95, -0.86 47.17, -1.36 56.71" stroke="#1e1e1e" stroke-width="1" fill="none"></path></g><g transform="translate(611.4262959926359 439.39088521956364) rotate(0 -0.03716115534962228 29.57606023858534)"><path d="M-8.73 32.82 C-4.22 40.54, -2.43 48.05, -1.36 56.71 M-8.73 32.82 C-7.09 37.58, -5 43.71, -1.36 56.71" stroke="#1e1e1e" stroke-width="1" fill="none"></path></g><g transform="translate(611.4262959926359 439.39088521956364) rotate(0 -0.03716115534962228 29.57606023858534)"><path d="M8.35 33.68 C7.06 41.02, 3.04 48.24, -1.36 56.71 M8.35 33.68 C5.94 38.38, 3.97 44.31, -1.36 56.71" stroke="#1e1e1e" stroke-width="1" fill="none"></path></g></g><mask></mask><g stroke-linecap="round"><g transform="translate(611.6672624508024 560.589882110442) rotate(0 -0.22631889558283547 19.682802598703347)"><path d="M0.04 -0.19 C0.15 6.37, 0.18 32.88, 0.11 39.44 M-0.6 -0.76 C-0.51 5.88, -0.49 33.4, -0.26 40.12" stroke="#1e1e1e" stroke-width="1" fill="none"></path></g><g transform="translate(611.6672624508024 560.589882110442) rotate(0 -0.22631889558283547 19.682802598703347)"><path d="M-7.29 21.68 C-6.15 25.7, -4.41 28.68, -0.26 40.12 M-7.29 21.68 C-5.75 26.4, -3.52 30.25, -0.26 40.12" stroke="#1e1e1e" stroke-width="1" fill="none"></path></g><g transform="translate(611.6672624508024 560.589882110442) rotate(0 -0.22631889558283547 19.682802598703347)"><path d="M6.21 21.48 C4.55 25.54, 3.5 28.57, -0.26 40.12 M6.21 21.48 C4.47 26.28, 3.42 30.18, -0.26 40.12" stroke="#1e1e1e" stroke-width="1" fill="none"></path></g></g><mask></mask><g stroke-linecap="round"><g transform="translate(611.9620867099716 651.3442689350886) rotate(0 -0.10248830881391768 19.737029517387782)"><path d="M0.45 -0.41 C0.42 6.27, -0.14 33.18, -0.15 39.89 M0.02 0.57 C-0.1 7.12, -0.69 32.74, -0.65 39.14" stroke="#1e1e1e" stroke-width="1" fill="none"></path></g><g transform="translate(611.9620867099716 651.3442689350886) rotate(0 -0.10248830881391768 19.737029517387782)"><path d="M-7.21 20.53 C-5.96 25.97, -2.45 32.69, -0.65 39.14 M-7.21 20.53 C-5.06 27.09, -2.69 34.07, -0.65 39.14" stroke="#1e1e1e" stroke-width="1" fill="none"></path></g><g transform="translate(611.9620867099716 651.3442689350886) rotate(0 -0.10248830881391768 19.737029517387782)"><path d="M6.29 20.67 C3.38 26.13, 2.73 32.8, -0.65 39.14 M6.29 20.67 C3.47 27.21, 0.87 34.13, -0.65 39.14" stroke="#1e1e1e" stroke-width="1" fill="none"></path></g></g><mask></mask><g stroke-linecap="round"><g transform="translate(612.5100426338572 753.7103976560902) rotate(0 -0.37991898870359364 49.333649760059416)"><path d="M-0.96 -0.7 C-1.15 15.81, -1.44 81.62, -1.62 98.17 M0.74 1.54 C0.98 18.29, 0.81 83, 0.73 99.37" stroke="#1e1e1e" stroke-width="1" fill="none"></path></g><g transform="translate(612.5100426338572 753.7103976560902) rotate(0 -0.37991898870359364 49.333649760059416)"><path d="M7.44 22.84 C4.25 15.47, 2.17 8.59, -0.96 -0.7 M7.44 22.84 C5.58 16.92, 3.63 8.69, -0.96 -0.7" stroke="#1e1e1e" stroke-width="1" fill="none"></path></g><g transform="translate(612.5100426338572 753.7103976560902) rotate(0 -0.37991898870359364 49.333649760059416)"><path d="M-9.66 22.73 C-8.38 15.53, -5.99 8.68, -0.96 -0.7 M-9.66 22.73 C-6.73 16.74, -3.88 8.55, -0.96 -0.7" stroke="#1e1e1e" stroke-width="1" fill="none"></path></g><g transform="translate(612.5100426338572 753.7103976560902) rotate(0 -0.37991898870359364 49.333649760059416)"><path d="M-7.74 75.85 C-6.89 80.93, -4.56 86.35, 0.73 99.37 M-7.74 75.85 C-5.23 83.03, -2.45 88.01, 0.73 99.37" stroke="#1e1e1e" stroke-width="1" fill="none"></path></g><g transform="translate(612.5100426338572 753.7103976560902) rotate(0 -0.37991898870359364 49.333649760059416)"><path d="M9.36 75.91 C5.74 80.83, 3.6 86.25, 0.73 99.37 M9.36 75.91 C7.08 83.16, 5.06 88.13, 0.73 99.37" stroke="#1e1e1e" stroke-width="1" fill="none"></path></g></g><mask></mask><g stroke-linecap="round"><g transform="translate(364.41268866488235 628.4626877761002) rotate(0 -49.2268410666818 0.7050824047255446)"><path d="M-0.8 1.15 C-17.17 1.33, -83.11 0, -99.43 0.14 M0.98 0.71 C-14.9 1.11, -80.34 1.35, -97.1 1.26" stroke="#1e1e1e" stroke-width="1" fill="none"></path></g><g transform="translate(364.41268866488235 628.4626877761002) rotate(0 -49.2268410666818 0.7050824047255446)"><path d="M-24.39 9.44 C-17.68 6.74, -16.2 6.21, -0.8 1.15 M-24.39 9.44 C-14.82 6.66, -6.58 3.4, -0.8 1.15" stroke="#1e1e1e" stroke-width="1" fill="none"></path></g><g transform="translate(364.41268866488235 628.4626877761002) rotate(0 -49.2268410666818 0.7050824047255446)"><path d="M-24.2 -7.66 C-17.66 -6.94, -16.22 -4.05, -0.8 1.15 M-24.2 -7.66 C-14.53 -3.84, -6.37 -0.5, -0.8 1.15" stroke="#1e1e1e" stroke-width="1" fill="none"></path></g><g transform="translate(364.41268866488235 628.4626877761002) rotate(0 -49.2268410666818 0.7050824047255446)"><path d="M-73.61 -7.29 C-76.45 -6.93, -84.39 -4.1, -97.1 1.26 M-73.61 -7.29 C-82.04 -3.17, -91.98 0.07, -97.1 1.26" stroke="#1e1e1e" stroke-width="1" fill="none"></path></g><g transform="translate(364.41268866488235 628.4626877761002) rotate(0 -49.2268410666818 0.7050824047255446)"><path d="M-73.6 9.81 C-76.32 6.75, -84.25 6.16, -97.1 1.26 M-73.6 9.81 C-82.21 7.33, -92.14 3.97, -97.1 1.26" stroke="#1e1e1e" stroke-width="1" fill="none"></path></g></g><mask></mask><g stroke-linecap="round"><g transform="translate(954.7412660378018 631.8146271347978) rotate(0 -46.91685216456176 -1.7120422986972699)"><path d="M-0.54 -0.16 C-16.32 -0.71, -78.95 -2.85, -94.51 -3.27 M1.37 -1.28 C-14.54 -1.64, -79.28 -1.13, -95.21 -1.68" stroke="#1e1e1e" stroke-width="1" fill="none"></path></g><g transform="translate(954.7412660378018 631.8146271347978) rotate(0 -46.91685216456176 -1.7120422986972699)"><path d="M-24.31 7.59 C-17.12 6.09, -9.26 4.58, -0.54 -0.16 M-24.31 7.59 C-16.73 5.3, -7.71 1.75, -0.54 -0.16" stroke="#1e1e1e" stroke-width="1" fill="none"></path></g><g transform="translate(954.7412660378018 631.8146271347978) rotate(0 -46.91685216456176 -1.7120422986972699)"><path d="M-23.73 -9.5 C-16.71 -5.64, -9.03 -1.79, -0.54 -0.16 M-23.73 -9.5 C-16.41 -5.65, -7.61 -3.07, -0.54 -0.16" stroke="#1e1e1e" stroke-width="1" fill="none"></path></g><g transform="translate(954.7412660378018 631.8146271347978) rotate(0 -46.91685216456176 -1.7120422986972699)"><path d="M-71.62 -9.99 C-79.28 -6.67, -86.28 -3.14, -95.21 -1.68 M-71.62 -9.99 C-81.08 -6.14, -89.07 -3.93, -95.21 -1.68" stroke="#1e1e1e" stroke-width="1" fill="none"></path></g><g transform="translate(954.7412660378018 631.8146271347978) rotate(0 -46.91685216456176 -1.7120422986972699)"><path d="M-71.81 7.12 C-79.42 5.06, -86.36 3.22, -95.21 -1.68 M-71.81 7.12 C-81.14 4.83, -89.06 0.9, -95.21 -1.68" stroke="#1e1e1e" stroke-width="1" fill="none"></path></g></g><mask></mask><g stroke-linecap="round"><g transform="translate(955.3632292367424 536.0667024441427) rotate(0 -46.88773801615457 -0.3929024433273298)"><path d="M0.63 -0.08 C-14.87 -0.09, -77.91 -0.87, -93.99 -0.82 M-0.51 -1.17 C-15.98 -0.96, -78.92 0.51, -94.4 0.38" stroke="#1e1e1e" stroke-width="1" fill="none"></path></g><g transform="translate(955.3632292367424 536.0667024441427) rotate(0 -46.88773801615457 -0.3929024433273298)"><path d="M-22.94 8.27 C-17.92 8.03, -13.75 3.14, 0.63 -0.08 M-22.94 8.27 C-14.25 5.93, -7.87 2.81, 0.63 -0.08" stroke="#1e1e1e" stroke-width="1" fill="none"></path></g><g transform="translate(955.3632292367424 536.0667024441427) rotate(0 -46.88773801615457 -0.3929024433273298)"><path d="M-22.79 -8.84 C-17.92 -5.37, -13.78 -6.56, 0.63 -0.08 M-22.79 -8.84 C-14.02 -5.49, -7.69 -2.94, 0.63 -0.08" stroke="#1e1e1e" stroke-width="1" fill="none"></path></g><g transform="translate(955.3632292367424 536.0667024441427) rotate(0 -46.88773801615457 -0.3929024433273298)"><path d="M-70.99 -8.4 C-76.26 -4.68, -82.25 -5.87, -94.4 0.38 M-70.99 -8.4 C-77.77 -5.01, -86.98 -2.45, -94.4 0.38" stroke="#1e1e1e" stroke-width="1" fill="none"></path></g><g transform="translate(955.3632292367424 536.0667024441427) rotate(0 -46.88773801615457 -0.3929024433273298)"><path d="M-70.83 8.7 C-76.01 8.72, -82.04 3.83, -94.4 0.38 M-70.83 8.7 C-77.78 6.41, -87.05 3.3, -94.4 0.38" stroke="#1e1e1e" stroke-width="1" fill="none"></path></g></g><mask></mask><g stroke-linecap="round"><g transform="translate(959.2449830427449 723.1243375729755) rotate(0 -47.33630431800566 -0.5571242388923565)"><path d="M-0.42 0.45 C-16.12 0.07, -79.46 -1.55, -95.19 -1.56 M1.56 -0.36 C-14.23 -0.68, -80.07 -0.3, -96.23 -0.47" stroke="#1e1e1e" stroke-width="1" fill="none"></path></g><g transform="translate(959.2449830427449 723.1243375729755) rotate(0 -47.33630431800566 -0.5571242388923565)"><path d="M-24.11 8.45 C-18.28 6.49, -15.31 5.44, -0.42 0.45 M-24.11 8.45 C-14.42 4.95, -6.23 2.06, -0.42 0.45" stroke="#1e1e1e" stroke-width="1" fill="none"></path></g><g transform="translate(959.2449830427449 723.1243375729755) rotate(0 -47.33630431800566 -0.5571242388923565)"><path d="M-23.71 -8.65 C-17.86 -6.9, -14.98 -4.25, -0.42 0.45 M-23.71 -8.65 C-14.04 -5.45, -6.01 -1.64, -0.42 0.45" stroke="#1e1e1e" stroke-width="1" fill="none"></path></g><g transform="translate(959.2449830427449 723.1243375729755) rotate(0 -47.33630431800566 -0.5571242388923565)"><path d="M-72.73 -8.99 C-77.02 -7.53, -84.28 -5, -96.23 -0.47 M-72.73 -8.99 C-81.4 -6.4, -91.71 -2.82, -96.23 -0.47" stroke="#1e1e1e" stroke-width="1" fill="none"></path></g><g transform="translate(959.2449830427449 723.1243375729755) rotate(0 -47.33630431800566 -0.5571242388923565)"><path d="M-72.75 8.11 C-77.15 5.87, -84.4 4.69, -96.23 -0.47 M-72.75 8.11 C-81.55 4, -91.86 0.88, -96.23 -0.47" stroke="#1e1e1e" stroke-width="1" fill="none"></path></g></g><mask></mask><g stroke-linecap="round"><g transform="translate(366.6637559415285 537.2489271912673) rotate(0 -49.287986476870174 0.005323665103787789)"><path d="M0.95 -1.14 C-15.67 -0.8, -82.73 0.62, -99.53 1.16 M-0.01 0.87 C-16.26 0.9, -80.99 -0.76, -97.24 -0.85" stroke="#1e1e1e" stroke-width="1" fill="none"></path></g><g transform="translate(366.6637559415285 537.2489271912673) rotate(0 -49.287986476870174 0.005323665103787789)"><path d="M-22.35 7.92 C-16.83 3.52, -7.18 0.17, 0.95 -1.14 M-22.35 7.92 C-12.22 4.15, -4.41 1.48, 0.95 -1.14" stroke="#1e1e1e" stroke-width="1" fill="none"></path></g><g transform="translate(366.6637559415285 537.2489271912673) rotate(0 -49.287986476870174 0.005323665103787789)"><path d="M-22.72 -9.18 C-17.21 -8.18, -7.45 -6.13, 0.95 -1.14 M-22.72 -9.18 C-12.47 -6.17, -4.51 -2.05, 0.95 -1.14" stroke="#1e1e1e" stroke-width="1" fill="none"></path></g><g transform="translate(366.6637559415285 537.2489271912673) rotate(0 -49.287986476870174 0.005323665103787789)"><path d="M-73.61 -9.01 C-83.05 -7.6, -88.22 -5.51, -97.24 -0.85 M-73.61 -9.01 C-82.13 -6.3, -92.94 -2.13, -97.24 -0.85" stroke="#1e1e1e" stroke-width="1" fill="none"></path></g><g transform="translate(366.6637559415285 537.2489271912673) rotate(0 -49.287986476870174 0.005323665103787789)"><path d="M-73.9 8.09 C-83.11 4.1, -88.2 0.79, -97.24 -0.85 M-73.9 8.09 C-82.28 4.02, -92.97 1.4, -97.24 -0.85" stroke="#1e1e1e" stroke-width="1" fill="none"></path></g></g><mask></mask><g stroke-linecap="round"><g transform="translate(363.1669910100518 711.283631707629) rotate(0 -48.86185693147786 1.5283038324796507)"><path d="M-0.33 1.15 C-16.88 1.4, -82.22 0.73, -98.55 0.85 M1.69 0.71 C-15.07 1.21, -82.65 2.46, -99.42 2.34" stroke="#1e1e1e" stroke-width="1" fill="none"></path></g><g transform="translate(363.1669910100518 711.283631707629) rotate(0 -48.86185693147786 1.5283038324796507)"><path d="M-23.85 9.62 C-13.37 6.89, -6.9 4.19, -0.33 1.15 M-23.85 9.62 C-15.62 7.03, -5.95 3.5, -0.33 1.15" stroke="#1e1e1e" stroke-width="1" fill="none"></path></g><g transform="translate(363.1669910100518 711.283631707629) rotate(0 -48.86185693147786 1.5283038324796507)"><path d="M-23.8 -7.48 C-13.42 -4.02, -6.98 -0.52, -0.33 1.15 M-23.8 -7.48 C-15.44 -3.6, -5.79 -0.66, -0.33 1.15" stroke="#1e1e1e" stroke-width="1" fill="none"></path></g><g transform="translate(363.1669910100518 711.283631707629) rotate(0 -48.86185693147786 1.5283038324796507)"><path d="M-75.99 -6.4 C-82.61 -3.03, -93.15 0.51, -99.42 2.34 M-75.99 -6.4 C-85.38 -2.12, -93.47 0.85, -99.42 2.34" stroke="#1e1e1e" stroke-width="1" fill="none"></path></g><g transform="translate(363.1669910100518 711.283631707629) rotate(0 -48.86185693147786 1.5283038324796507)"><path d="M-75.86 10.7 C-82.43 7.88, -93.02 5.22, -99.42 2.34 M-75.86 10.7 C-85.43 8.51, -93.58 5.01, -99.42 2.34" stroke="#1e1e1e" stroke-width="1" fill="none"></path></g></g><mask></mask></svg>